<?xml version="1.0" standalone="no"?>
<!DOCTYPE svg PUBLIC "-//W3C//DTD SVG 20010904//EN"
 "http://www.w3.org/TR/2001/REC-SVG-20010904/DTD/svg10.dtd">
<svg version="1.0" xmlns="http://www.w3.org/2000/svg"
 width="700.000000pt" height="700.000000pt" viewBox="0 0 700.000000 700.000000"
 preserveAspectRatio="xMidYMid meet">
<metadata>
Created by potrace 1.11, written by Peter Selinger 2001-2013
</metadata>
<g transform="translate(0.000000,700.000000) scale(0.100000,-0.100000)"
fill="#000000" stroke="none">
<path d="M6367 6118 l-327 -333 -267 268 c-148 147 -270 267 -273 267 -5 0 -6
-1782 -1 -1816 1 -9 195 -11 748 -10 l747 2 3 165 2 164 -395 398 -395 399 22
36 c12 21 46 75 74 122 335 546 409 670 397 670 -4 0 -155 -150 -335 -332z"/>
<path d="M5015 6322 c-25 -2 -172 -145 -878 -851 l-848 -848 1 -207 2 -208 21
19 c26 21 1785 1782 1972 1972 l129 133 -184 -4 c-102 -2 -199 -4 -215 -6z"/>
<path d="M4465 5323 c-545 -544 -1028 -1027 -1074 -1075 l-84 -86 114 -118
c63 -64 545 -549 1071 -1078 l957 -961 1 310 c1 171 4 639 6 1040 8 1203 10
2922 4 2940 -4 12 -261 -238 -995 -972z"/>
<path d="M2162 4119 c-10 -4 -253 -241 -541 -528 l-523 -521 4 -521 c1 -286 6
-523 10 -526 12 -6 2103 2085 2094 2094 -9 10 -1020 11 -1044 2z"/>
<path d="M1925 4042 c-82 -43 -249 -129 -370 -191 -121 -63 -269 -139 -330
-171 -132 -69 -391 -202 -645 -332 -352 -181 -565 -291 -570 -296 -5 -4 351 5
495 13 63 3 194 9 475 20 l95 4 460 464 c561 567 562 567 550 567 -6 0 -77
-36 -160 -78z"/>
<path d="M2250 3110 c-553 -554 -1033 -1037 -1068 -1072 l-63 -65 48 0 c293
-4 2086 -4 2090 0 5 6 5 2138 0 2143 -1 1 -454 -451 -1007 -1006z"/>
<path d="M3299 4100 c-9 -26 -13 -2119 -5 -2127 4 -4 1817 -4 2069 0 l68 1
-93 94 c-121 124 -1919 1922 -1987 1987 -28 27 -52 47 -52 45z"/>
<path d="M977 3043 c-2 -1 -190 -10 -407 -18 -564 -22 -565 -22 -562 -75 0 -3
3 -79 7 -170 3 -91 8 -203 10 -250 6 -129 17 -353 18 -367 0 -7 3 -13 6 -13 6
0 121 89 136 105 6 6 41 38 80 71 81 68 68 57 176 155 46 42 134 120 194 174
61 54 126 112 145 129 19 17 80 72 135 121 92 81 145 133 145 141 0 3 -80 1
-83 -3z"/>
<path d="M1655 1400 c296 -296 540 -538 542 -537 1 1 203 202 450 446 246 244
489 484 540 534 l91 90 537 -534 c295 -294 538 -535 539 -536 1 -1 245 241
541 537 l540 540 -2160 0 -2160 0 540 -540z"/>
</g>
</svg>
