<svg width="1542" height="487" viewBox="0 0 1542 487" fill="none" xmlns="http://www.w3.org/2000/svg">
<path d="M693 466H665.064L656.424 446.416L610.344 467.728C597.48 467.728 586.248 463.024 576.648 453.616C567.24 444.016 562.536 430.096 562.536 411.856V301.552H599.976V403.792C599.976 422.032 607.272 431.152 621.864 431.152L655.56 413.008V301.552H693V466ZM862.702 466H825.262V360.88C825.262 351.472 823.342 345.04 819.502 341.584C815.662 338.128 810.286 336.4 803.374 336.4L769.678 350.512V466H732.238V301.552H760.174L768.814 321.136L814.894 299.824C827.758 299.824 838.894 304.624 848.302 314.224C857.902 323.632 862.702 337.456 862.702 355.696V466ZM919.22 238.768C928.244 238.768 934.1 240.208 936.788 243.088C939.476 245.776 940.82 251.632 940.82 260.656C940.82 269.488 939.38 275.344 936.5 278.224C933.812 280.912 927.956 282.256 918.932 282.256C910.1 282.256 904.244 280.816 901.364 277.936C898.676 275.056 897.332 269.2 897.332 260.368C897.332 251.536 898.676 245.776 901.364 243.088C904.244 240.208 910.196 238.768 919.22 238.768ZM937.652 466H900.212V307.6H937.652V466ZM1063.62 405.808L1097.6 405.52C1097.41 407.056 1097.22 409.84 1097.03 413.872C1096.84 417.904 1096.64 420.688 1096.45 422.224C1096.45 423.568 1096.26 425.776 1095.88 428.848C1095.49 431.92 1095.01 434.224 1094.44 435.76C1094.05 437.104 1093.48 438.928 1092.71 441.232C1089.25 451.216 1079.84 459.088 1064.48 464.848C1054.69 468.304 1044.42 470.032 1033.67 470.032C1023.11 470.032 1013.51 468.304 1004.87 464.848C996.228 461.392 989.412 456.976 984.42 451.6C973.092 439.696 967.428 417.424 967.428 384.784C967.428 351.952 973.092 329.584 984.42 317.68C989.412 312.304 996.228 307.888 1004.87 304.432C1013.51 300.976 1023.11 299.248 1033.67 299.248C1054.4 299.248 1070.15 304.432 1080.9 314.8C1091.65 325.168 1097.03 339.568 1097.03 358H1063.04C1063.04 349.552 1060.93 343.312 1056.71 339.28C1052.48 335.056 1044.61 332.944 1033.09 332.944C1021.76 332.944 1014.18 336.496 1010.34 343.6C1006.69 350.704 1004.87 361.36 1004.87 375.568V390.544C1004.87 413.392 1009.28 427.408 1018.12 432.592C1022.15 435.088 1027.43 436.336 1033.96 436.336C1040.48 436.336 1045.76 435.76 1049.8 434.608C1054.02 433.264 1057 431.056 1058.72 427.984C1060.64 424.912 1061.89 421.936 1062.47 419.056C1063.04 415.984 1063.43 411.568 1063.62 405.808ZM1217.86 391.696V376.72C1217.86 362.512 1215.75 351.664 1211.52 344.176C1207.49 336.688 1198.95 332.944 1185.89 332.944C1164.77 332.944 1154.21 347.152 1154.21 375.568V390.544C1154.21 421.072 1164.77 436.336 1185.89 436.336C1199.52 436.336 1208.45 431.248 1212.68 421.072C1216.13 413.008 1217.86 403.216 1217.86 391.696ZM1255.3 383.056C1255.3 418.576 1248.58 442.384 1235.14 454.48C1223.81 464.848 1207.4 470.032 1185.89 470.032C1158.44 470.032 1139.91 461.968 1130.31 445.84C1121.28 431.056 1116.77 410.128 1116.77 383.056C1116.77 357.712 1121.28 337.84 1130.31 323.44C1140.29 307.312 1158.44 299.248 1184.74 299.248C1211.24 299.248 1229.57 306.352 1239.75 320.56C1250.12 334.576 1255.3 355.408 1255.3 383.056ZM1372.51 302.128L1362.14 338.992C1359.26 337.84 1355.99 337.264 1352.35 337.264C1342.75 337.264 1330.94 341.392 1316.92 349.648V466H1279.48V301.552H1307.42L1316.06 315.952L1355.8 299.536C1357.72 299.344 1360.31 299.248 1363.58 299.248C1366.84 299.248 1369.82 300.208 1372.51 302.128ZM1525.05 466H1487.61V360.88C1487.61 351.472 1485.69 345.04 1481.85 341.584C1478.01 338.128 1472.63 336.4 1465.72 336.4L1432.02 350.512V466H1394.58V301.552H1422.52L1431.16 321.136L1477.24 299.824C1490.1 299.824 1501.24 304.624 1510.65 314.224C1520.25 323.632 1525.05 337.456 1525.05 355.696V466Z" fill="white"/>
<g filter="url(#filter0_b)">
<path d="M694.352 141.312C694.352 184.128 683.312 211.488 661.232 223.392C652.208 228.192 641.168 230.592 628.112 230.592L600.464 212.736V276.96H563.024V64.704H636.752C659.024 64.704 674.192 71.04 682.256 83.712C690.32 96.192 694.352 115.392 694.352 141.312ZM656.912 147.072C656.912 114.624 646.544 98.4 625.808 98.4H600.464V174.72L625.808 191.136C636.944 191.136 644.912 187.68 649.712 180.768C654.512 173.664 656.912 162.432 656.912 147.072ZM811.444 64.128L801.076 100.992C798.196 99.84 794.932 99.264 791.284 99.264C781.684 99.264 769.876 103.392 755.86 111.648V228H718.42V63.552H746.356L754.996 77.952L794.74 61.536C796.66 61.344 799.252 61.248 802.516 61.248C805.78 61.248 808.756 62.208 811.444 64.128ZM925.391 153.696V138.72C925.391 124.512 923.279 113.664 919.055 106.176C915.023 98.688 906.479 94.944 893.423 94.944C872.303 94.944 861.743 109.152 861.743 137.568V152.544C861.743 183.072 872.303 198.336 893.423 198.336C907.055 198.336 915.983 193.248 920.207 183.072C923.663 175.008 925.391 165.216 925.391 153.696ZM962.831 145.056C962.831 180.576 956.111 204.384 942.671 216.48C931.343 226.848 914.927 232.032 893.423 232.032C865.967 232.032 847.439 223.968 837.839 207.84C828.815 193.056 824.303 172.128 824.303 145.056C824.303 119.712 828.815 99.84 837.839 85.44C847.823 69.312 865.967 61.248 892.271 61.248C918.767 61.248 937.103 68.352 947.279 82.56C957.647 96.576 962.831 117.408 962.831 145.056ZM1030.21 69.6V234.048C1030.21 245.76 1026.47 255.84 1018.98 264.288C1011.69 272.736 1000.84 276.96 986.438 276.96H965.126V245.28H979.526C988.358 245.28 992.774 240.768 992.774 231.744V69.6H1030.21ZM1011.78 0.76799C1020.81 0.76799 1026.66 2.20799 1029.35 5.08799C1032.04 7.77599 1033.38 13.632 1033.38 22.656C1033.38 31.488 1031.94 37.344 1029.06 40.224C1026.37 42.912 1020.52 44.256 1011.49 44.256C1002.66 44.256 996.806 42.816 993.926 39.936C991.238 37.056 989.894 31.2 989.894 22.368C989.894 13.536 991.238 7.77599 993.926 5.08799C996.806 2.20799 1002.76 0.76799 1011.78 0.76799ZM1195.35 154.56H1099.45C1099.45 169.536 1101.75 180.48 1106.36 187.392C1111.16 194.304 1120.66 197.76 1134.87 197.76C1144.09 197.76 1150.9 194.88 1155.32 189.12C1159.73 183.168 1161.94 177.504 1161.94 172.128H1195.64C1195.64 192.672 1190.07 207.744 1178.93 217.344C1167.99 226.944 1153.4 231.744 1135.16 231.744C1117.11 231.744 1103.09 229.152 1093.11 223.968C1072.57 213.408 1062.29 185.376 1062.29 139.872C1062.29 112.8 1068.15 93.024 1079.86 80.544C1091.57 67.872 1109.43 61.536 1133.43 61.536C1175.09 61.536 1195.93 84.672 1195.93 130.944C1195.93 135.936 1195.73 143.808 1195.35 154.56ZM1100.31 128.928H1161.94C1161.94 116.256 1159.54 107.04 1154.74 101.28C1149.94 95.52 1142.55 92.64 1132.57 92.64C1122.77 92.64 1114.9 95.616 1108.95 101.568C1103.19 107.328 1100.31 116.448 1100.31 128.928ZM1313.96 167.808L1347.95 167.52C1347.76 169.056 1347.56 171.84 1347.37 175.872C1347.18 179.904 1346.99 182.688 1346.8 184.224C1346.8 185.568 1346.6 187.776 1346.22 190.848C1345.84 193.92 1345.36 196.224 1344.78 197.76C1344.4 199.104 1343.82 200.928 1343.05 203.232C1339.6 213.216 1330.19 221.088 1314.83 226.848C1305.04 230.304 1294.76 232.032 1284.01 232.032C1273.45 232.032 1263.85 230.304 1255.21 226.848C1246.57 223.392 1239.76 218.976 1234.76 213.6C1223.44 201.696 1217.77 179.424 1217.77 146.784C1217.77 113.952 1223.44 91.584 1234.76 79.68C1239.76 74.304 1246.57 69.888 1255.21 66.432C1263.85 62.976 1273.45 61.248 1284.01 61.248C1304.75 61.248 1320.49 66.432 1331.24 76.8C1342 87.168 1347.37 101.568 1347.37 120H1313.39C1313.39 111.552 1311.28 105.312 1307.05 101.28C1302.83 97.056 1294.96 94.944 1283.44 94.944C1272.11 94.944 1264.52 98.496 1260.68 105.6C1257.04 112.704 1255.21 123.36 1255.21 137.568V152.544C1255.21 175.392 1259.63 189.408 1268.46 194.592C1272.49 197.088 1277.77 198.336 1284.3 198.336C1290.83 198.336 1296.11 197.76 1300.14 196.608C1304.36 195.264 1307.34 193.056 1309.07 189.984C1310.99 186.912 1312.24 183.936 1312.81 181.056C1313.39 177.984 1313.77 173.568 1313.96 167.808ZM1449.48 228H1426.16C1411.95 228 1401.1 223.776 1393.61 215.328C1386.32 206.88 1382.67 196.8 1382.67 185.088V98.688H1366.83V70.176H1382.67V37.92H1420.11V70.176H1446.6V98.688H1420.11V182.784C1420.11 191.808 1424.43 196.32 1433.07 196.32H1449.48V228Z" fill="white"/>
</g>
<path fill-rule="evenodd" clip-rule="evenodd" d="M410.439 110.619L388.97 132.512L371.706 115.255L354.442 97.9978V156.114V214.23L401.915 214.085L449.388 213.942L449.536 203.58L449.685 193.217L424.749 168.293C411.035 154.584 399.814 143.138 399.814 142.856C399.814 142.353 402.02 138.666 411.57 123.198C427.966 96.6436 432.425 89.244 432.183 89.0017C432.033 88.8505 422.248 98.579 410.439 110.619ZM332.991 98.2527L322.464 98.5509L268.713 152.302L214.964 206.053V219.1C214.964 226.276 215.153 232.147 215.385 232.147C216.178 232.147 349.447 98.5033 349.05 98.107C348.832 97.8886 347.499 97.7653 346.086 97.8325C344.674 97.8984 338.781 98.0874 332.991 98.2527ZM284.133 166.593C246.86 203.861 216.297 234.676 216.214 235.071C216.132 235.466 246.538 266.258 283.784 303.498L351.504 371.207L351.848 328.425C352.539 242.827 352.88 98.831 352.394 98.831C352.123 98.831 321.405 129.324 284.133 166.593ZM135.702 239.198C133.546 240.3 127.244 243.544 121.698 246.406C116.153 249.27 107.078 253.946 101.533 256.798C95.9873 259.651 88.4252 263.558 84.7282 265.479C81.0312 267.402 72.7129 271.691 66.2432 275.01C59.7734 278.329 51.2031 282.736 47.198 284.805C43.1929 286.872 34.6225 291.286 28.1528 294.611C21.683 297.939 14.2764 301.755 11.6941 303.094L7 305.527H10.8763C13.0076 305.527 23.6912 305.137 34.6155 304.659C45.5413 304.182 59.1208 303.598 64.7924 303.361L75.1048 302.933L101.701 276.083C137.602 239.84 140.206 237.189 139.893 237.192C139.745 237.193 137.859 238.096 135.702 239.198ZM147.465 237.599L142.984 237.785L109.795 270.955L76.606 304.123V337.501C76.606 355.859 76.7404 371.012 76.9029 371.176C77.2544 371.527 210.483 238.372 210.483 237.669C210.483 237.229 157.839 237.171 147.465 237.599ZM145.363 305.389C108.164 342.59 77.7263 373.216 77.7263 373.447C77.7263 373.677 108.227 373.866 145.505 373.866H213.283V305.807C213.283 268.375 213.22 237.749 213.142 237.749C213.065 237.749 182.564 268.186 145.363 305.389ZM214.964 306.088V373.866H282.742C320.02 373.866 350.521 373.677 350.521 373.445C350.521 372.896 215.933 238.309 215.382 238.309C215.153 238.309 214.964 268.809 214.964 306.088ZM71.5422 305.718C71.4008 305.848 63.7225 306.236 54.48 306.579C6.38803 308.362 6.87957 308.314 7.41591 311.129C7.56295 311.899 8.0895 323.746 8.58523 337.456C9.08237 351.166 9.67893 362.585 9.9128 362.83C10.1467 363.076 18.5055 356.01 28.4875 347.127C79.7611 301.506 75.0096 305.939 72.9426 305.644C72.3124 305.554 71.6823 305.588 71.5422 305.718ZM111.674 409.773L145.901 444L179.816 410.053C198.469 391.383 213.944 376.107 214.205 376.107C214.467 376.107 229.944 391.368 248.6 410.023L282.518 443.938L314.979 411.475C332.832 393.62 348.181 378.232 349.085 377.279L350.731 375.547H214.089H77.4476L111.674 409.773Z" fill="white"/>
<defs>
<filter id="filter0_b" x="559.024" y="-3.23193" width="894.459" height="284.192" filterUnits="userSpaceOnUse" color-interpolation-filters="sRGB">
<feFlood flood-opacity="0" result="BackgroundImageFix"/>
<feGaussianBlur in="BackgroundImage" stdDeviation="2"/>
<feComposite in2="SourceAlpha" operator="in" result="effect1_backgroundBlur"/>
<feBlend mode="normal" in="SourceGraphic" in2="effect1_backgroundBlur" result="shape"/>
</filter>
</defs>
</svg>
