<svg width="1535" height="489" viewBox="0 0 1535 489" fill="none" xmlns="http://www.w3.org/2000/svg">
<path d="M686 468H658.064L649.424 448.416L603.344 469.728C590.48 469.728 579.248 465.024 569.648 455.616C560.24 446.016 555.536 432.096 555.536 413.856V303.552H592.976V405.792C592.976 424.032 600.272 433.152 614.864 433.152L648.56 415.008V303.552H686V468ZM855.702 468H818.262V362.88C818.262 353.472 816.342 347.04 812.502 343.584C808.662 340.128 803.286 338.4 796.374 338.4L762.678 352.512V468H725.238V303.552H753.174L761.814 323.136L807.894 301.824C820.758 301.824 831.894 306.624 841.302 316.224C850.902 325.632 855.702 339.456 855.702 357.696V468ZM912.22 240.768C921.244 240.768 927.1 242.208 929.788 245.088C932.476 247.776 933.82 253.632 933.82 262.656C933.82 271.488 932.38 277.344 929.5 280.224C926.812 282.912 920.956 284.256 911.932 284.256C903.1 284.256 897.244 282.816 894.364 279.936C891.676 277.056 890.332 271.2 890.332 262.368C890.332 253.536 891.676 247.776 894.364 245.088C897.244 242.208 903.196 240.768 912.22 240.768ZM930.652 468H893.212V309.6H930.652V468ZM1056.62 407.808L1090.6 407.52C1090.41 409.056 1090.22 411.84 1090.03 415.872C1089.84 419.904 1089.64 422.688 1089.45 424.224C1089.45 425.568 1089.26 427.776 1088.88 430.848C1088.49 433.92 1088.01 436.224 1087.44 437.76C1087.05 439.104 1086.48 440.928 1085.71 443.232C1082.25 453.216 1072.84 461.088 1057.48 466.848C1047.69 470.304 1037.42 472.032 1026.67 472.032C1016.11 472.032 1006.51 470.304 997.868 466.848C989.228 463.392 982.412 458.976 977.42 453.6C966.092 441.696 960.428 419.424 960.428 386.784C960.428 353.952 966.092 331.584 977.42 319.68C982.412 314.304 989.228 309.888 997.868 306.432C1006.51 302.976 1016.11 301.248 1026.67 301.248C1047.4 301.248 1063.15 306.432 1073.9 316.8C1084.65 327.168 1090.03 341.568 1090.03 360H1056.04C1056.04 351.552 1053.93 345.312 1049.71 341.28C1045.48 337.056 1037.61 334.944 1026.09 334.944C1014.76 334.944 1007.18 338.496 1003.34 345.6C999.692 352.704 997.868 363.36 997.868 377.568V392.544C997.868 415.392 1002.28 429.408 1011.12 434.592C1015.15 437.088 1020.43 438.336 1026.96 438.336C1033.48 438.336 1038.76 437.76 1042.8 436.608C1047.02 435.264 1050 433.056 1051.72 429.984C1053.64 426.912 1054.89 423.936 1055.47 421.056C1056.04 417.984 1056.43 413.568 1056.62 407.808ZM1210.86 393.696V378.72C1210.86 364.512 1208.75 353.664 1204.52 346.176C1200.49 338.688 1191.95 334.944 1178.89 334.944C1157.77 334.944 1147.21 349.152 1147.21 377.568V392.544C1147.21 423.072 1157.77 438.336 1178.89 438.336C1192.52 438.336 1201.45 433.248 1205.68 423.072C1209.13 415.008 1210.86 405.216 1210.86 393.696ZM1248.3 385.056C1248.3 420.576 1241.58 444.384 1228.14 456.48C1216.81 466.848 1200.4 472.032 1178.89 472.032C1151.44 472.032 1132.91 463.968 1123.31 447.84C1114.28 433.056 1109.77 412.128 1109.77 385.056C1109.77 359.712 1114.28 339.84 1123.31 325.44C1133.29 309.312 1151.44 301.248 1177.74 301.248C1204.24 301.248 1222.57 308.352 1232.75 322.56C1243.12 336.576 1248.3 357.408 1248.3 385.056ZM1365.51 304.128L1355.14 340.992C1352.26 339.84 1348.99 339.264 1345.35 339.264C1335.75 339.264 1323.94 343.392 1309.92 351.648V468H1272.48V303.552H1300.42L1309.06 317.952L1348.8 301.536C1350.72 301.344 1353.31 301.248 1356.58 301.248C1359.84 301.248 1362.82 302.208 1365.51 304.128ZM1518.05 468H1480.61V362.88C1480.61 353.472 1478.69 347.04 1474.85 343.584C1471.01 340.128 1465.63 338.4 1458.72 338.4L1425.02 352.512V468H1387.58V303.552H1415.52L1424.16 323.136L1470.24 301.824C1483.1 301.824 1494.24 306.624 1503.65 316.224C1513.25 325.632 1518.05 339.456 1518.05 357.696V468Z" fill="white"/>
<path d="M694.352 141.312C694.352 184.128 683.312 211.488 661.232 223.392C652.208 228.192 641.168 230.592 628.112 230.592L600.464 212.736V276.96H563.024V64.704H636.752C659.024 64.704 674.192 71.04 682.256 83.712C690.32 96.192 694.352 115.392 694.352 141.312ZM656.912 147.072C656.912 114.624 646.544 98.4 625.808 98.4H600.464V174.72L625.808 191.136C636.944 191.136 644.912 187.68 649.712 180.768C654.512 173.664 656.912 162.432 656.912 147.072ZM811.444 64.128L801.076 100.992C798.196 99.84 794.932 99.264 791.284 99.264C781.684 99.264 769.876 103.392 755.86 111.648V228H718.42V63.552H746.356L754.996 77.952L794.74 61.536C796.66 61.344 799.252 61.248 802.516 61.248C805.78 61.248 808.756 62.208 811.444 64.128ZM925.391 153.696V138.72C925.391 124.512 923.279 113.664 919.055 106.176C915.023 98.688 906.479 94.944 893.423 94.944C872.303 94.944 861.743 109.152 861.743 137.568V152.544C861.743 183.072 872.303 198.336 893.423 198.336C907.055 198.336 915.983 193.248 920.207 183.072C923.663 175.008 925.391 165.216 925.391 153.696ZM962.831 145.056C962.831 180.576 956.111 204.384 942.671 216.48C931.343 226.848 914.927 232.032 893.423 232.032C865.967 232.032 847.439 223.968 837.839 207.84C828.815 193.056 824.303 172.128 824.303 145.056C824.303 119.712 828.815 99.84 837.839 85.44C847.823 69.312 865.967 61.248 892.271 61.248C918.767 61.248 937.103 68.352 947.279 82.56C957.647 96.576 962.831 117.408 962.831 145.056ZM1030.21 69.6V234.048C1030.21 245.76 1026.47 255.84 1018.98 264.288C1011.69 272.736 1000.84 276.96 986.438 276.96H965.126V245.28H979.526C988.358 245.28 992.774 240.768 992.774 231.744V69.6H1030.21ZM1011.78 0.76799C1020.81 0.76799 1026.66 2.20799 1029.35 5.08799C1032.04 7.77599 1033.38 13.632 1033.38 22.656C1033.38 31.488 1031.94 37.344 1029.06 40.224C1026.37 42.912 1020.52 44.256 1011.49 44.256C1002.66 44.256 996.806 42.816 993.926 39.936C991.238 37.056 989.894 31.2 989.894 22.368C989.894 13.536 991.238 7.77599 993.926 5.08799C996.806 2.20799 1002.76 0.76799 1011.78 0.76799ZM1195.35 154.56H1099.45C1099.45 169.536 1101.75 180.48 1106.36 187.392C1111.16 194.304 1120.66 197.76 1134.87 197.76C1144.09 197.76 1150.9 194.88 1155.32 189.12C1159.73 183.168 1161.94 177.504 1161.94 172.128H1195.64C1195.64 192.672 1190.07 207.744 1178.93 217.344C1167.99 226.944 1153.4 231.744 1135.16 231.744C1117.11 231.744 1103.09 229.152 1093.11 223.968C1072.57 213.408 1062.29 185.376 1062.29 139.872C1062.29 112.8 1068.15 93.024 1079.86 80.544C1091.57 67.872 1109.43 61.536 1133.43 61.536C1175.09 61.536 1195.93 84.672 1195.93 130.944C1195.93 135.936 1195.73 143.808 1195.35 154.56ZM1100.31 128.928H1161.94C1161.94 116.256 1159.54 107.04 1154.74 101.28C1149.94 95.52 1142.55 92.64 1132.57 92.64C1122.77 92.64 1114.9 95.616 1108.95 101.568C1103.19 107.328 1100.31 116.448 1100.31 128.928ZM1313.96 167.808L1347.95 167.52C1347.76 169.056 1347.56 171.84 1347.37 175.872C1347.18 179.904 1346.99 182.688 1346.8 184.224C1346.8 185.568 1346.6 187.776 1346.22 190.848C1345.84 193.92 1345.36 196.224 1344.78 197.76C1344.4 199.104 1343.82 200.928 1343.05 203.232C1339.6 213.216 1330.19 221.088 1314.83 226.848C1305.04 230.304 1294.76 232.032 1284.01 232.032C1273.45 232.032 1263.85 230.304 1255.21 226.848C1246.57 223.392 1239.76 218.976 1234.76 213.6C1223.44 201.696 1217.77 179.424 1217.77 146.784C1217.77 113.952 1223.44 91.584 1234.76 79.68C1239.76 74.304 1246.57 69.888 1255.21 66.432C1263.85 62.976 1273.45 61.248 1284.01 61.248C1304.75 61.248 1320.49 66.432 1331.24 76.8C1342 87.168 1347.37 101.568 1347.37 120H1313.39C1313.39 111.552 1311.28 105.312 1307.05 101.28C1302.83 97.056 1294.96 94.944 1283.44 94.944C1272.11 94.944 1264.52 98.496 1260.68 105.6C1257.04 112.704 1255.21 123.36 1255.21 137.568V152.544C1255.21 175.392 1259.63 189.408 1268.46 194.592C1272.49 197.088 1277.77 198.336 1284.3 198.336C1290.83 198.336 1296.11 197.76 1300.14 196.608C1304.36 195.264 1307.34 193.056 1309.07 189.984C1310.99 186.912 1312.24 183.936 1312.81 181.056C1313.39 177.984 1313.77 173.568 1313.96 167.808ZM1449.48 228H1426.16C1411.95 228 1401.1 223.776 1393.61 215.328C1386.32 206.88 1382.67 196.8 1382.67 185.088V98.688H1366.83V70.176H1382.67V37.92H1420.11V70.176H1446.6V98.688H1420.11V182.784C1420.11 191.808 1424.43 196.32 1433.07 196.32H1449.48V228Z" fill="white"/>
<path fill-rule="evenodd" clip-rule="evenodd" d="M403.439 112.619L381.97 134.512L364.706 117.255L347.442 99.9978V158.114V216.23L394.915 216.085L442.388 215.942L442.536 205.58L442.685 195.217L417.749 170.293C404.035 156.584 392.814 145.138 392.814 144.856C392.814 144.353 395.02 140.666 404.57 125.198C420.966 98.6436 425.425 91.244 425.183 91.0017C425.033 90.8505 415.248 100.579 403.439 112.619ZM325.991 100.253L315.464 100.551L261.713 154.302L207.964 208.053V221.1C207.964 228.276 208.153 234.147 208.385 234.147C209.178 234.147 342.447 100.503 342.05 100.107C341.832 99.8886 340.499 99.7653 339.086 99.8325C337.674 99.8984 331.781 100.087 325.991 100.253ZM277.133 168.593C239.86 205.861 209.297 236.676 209.214 237.071C209.132 237.466 239.538 268.258 276.784 305.498L344.504 373.207L344.848 330.425C345.539 244.827 345.88 100.831 345.394 100.831C345.123 100.831 314.405 131.324 277.133 168.593ZM128.702 241.198C126.546 242.3 120.244 245.544 114.698 248.406C109.153 251.27 100.078 255.946 94.5328 258.798C88.9873 261.651 81.4252 265.558 77.7282 267.479C74.0312 269.402 65.7129 273.691 59.2432 277.01C52.7734 280.329 44.2031 284.736 40.198 286.805C36.1929 288.872 27.6225 293.286 21.1528 296.611C14.683 299.939 7.27639 303.755 4.69408 305.094L0 307.527H3.87626C6.00764 307.527 16.6912 307.137 27.6155 306.659C38.5413 306.182 52.1208 305.598 57.7924 305.361L68.1048 304.933L94.7008 278.083C130.602 241.84 133.206 239.189 132.893 239.192C132.745 239.193 130.859 240.096 128.702 241.198ZM140.465 239.599L135.984 239.785L102.795 272.955L69.606 306.123V339.501C69.606 357.859 69.7404 373.012 69.9029 373.176C70.2544 373.527 203.483 240.372 203.483 239.669C203.483 239.229 150.839 239.171 140.465 239.599ZM138.363 307.389C101.164 344.59 70.7263 375.216 70.7263 375.447C70.7263 375.677 101.227 375.866 138.505 375.866H206.283V307.807C206.283 270.375 206.22 239.749 206.142 239.749C206.065 239.749 175.564 270.186 138.363 307.389ZM207.964 308.088V375.866H275.742C313.02 375.866 343.521 375.677 343.521 375.445C343.521 374.896 208.933 240.309 208.382 240.309C208.153 240.309 207.964 270.809 207.964 308.088ZM64.5422 307.718C64.4008 307.848 56.7225 308.236 47.48 308.579C-0.611967 310.362 -0.120432 310.314 0.415915 313.129C0.562955 313.899 1.0895 325.746 1.58523 339.456C2.08237 353.166 2.67893 364.585 2.9128 364.83C3.14666 365.076 11.5055 358.01 21.4875 349.127C72.7611 303.506 68.0096 307.939 65.9426 307.644C65.3124 307.554 64.6823 307.588 64.5422 307.718ZM104.674 411.773L138.901 446L172.816 412.053C191.469 393.383 206.944 378.107 207.205 378.107C207.467 378.107 222.944 393.368 241.6 412.023L275.518 445.938L307.979 413.475C325.832 395.62 341.181 380.232 342.085 379.279L343.731 377.547H207.089H70.4476L104.674 411.773Z" fill="white"/>
</svg>
