<svg width="1774" height="597" viewBox="0 0 1774 597" fill="none" xmlns="http://www.w3.org/2000/svg">
<path d="M864 515H836.064L827.424 495.416L781.344 516.728C768.48 516.728 757.248 512.024 747.648 502.616C738.24 493.016 733.536 479.096 733.536 460.856V350.552H770.976V452.792C770.976 471.032 778.272 480.152 792.864 480.152L826.56 462.008V350.552H864V515ZM1033.7 515H996.262V409.88C996.262 400.472 994.342 394.04 990.502 390.584C986.662 387.128 981.286 385.4 974.374 385.4L940.678 399.512V515H903.238V350.552H931.174L939.814 370.136L985.894 348.824C998.758 348.824 1009.89 353.624 1019.3 363.224C1028.9 372.632 1033.7 386.456 1033.7 404.696V515ZM1090.22 287.768C1099.24 287.768 1105.1 289.208 1107.79 292.088C1110.48 294.776 1111.82 300.632 1111.82 309.656C1111.82 318.488 1110.38 324.344 1107.5 327.224C1104.81 329.912 1098.96 331.256 1089.93 331.256C1081.1 331.256 1075.24 329.816 1072.36 326.936C1069.68 324.056 1068.33 318.2 1068.33 309.368C1068.33 300.536 1069.68 294.776 1072.36 292.088C1075.24 289.208 1081.2 287.768 1090.22 287.768ZM1108.65 515H1071.21V356.6H1108.65V515ZM1234.62 454.808L1268.6 454.52C1268.41 456.056 1268.22 458.84 1268.03 462.872C1267.84 466.904 1267.64 469.688 1267.45 471.224C1267.45 472.568 1267.26 474.776 1266.88 477.848C1266.49 480.92 1266.01 483.224 1265.44 484.76C1265.05 486.104 1264.48 487.928 1263.71 490.232C1260.25 500.216 1250.84 508.088 1235.48 513.848C1225.69 517.304 1215.42 519.032 1204.67 519.032C1194.11 519.032 1184.51 517.304 1175.87 513.848C1167.23 510.392 1160.41 505.976 1155.42 500.6C1144.09 488.696 1138.43 466.424 1138.43 433.784C1138.43 400.952 1144.09 378.584 1155.42 366.68C1160.41 361.304 1167.23 356.888 1175.87 353.432C1184.51 349.976 1194.11 348.248 1204.67 348.248C1225.4 348.248 1241.15 353.432 1251.9 363.8C1262.65 374.168 1268.03 388.568 1268.03 407H1234.04C1234.04 398.552 1231.93 392.312 1227.71 388.28C1223.48 384.056 1215.61 381.944 1204.09 381.944C1192.76 381.944 1185.18 385.496 1181.34 392.6C1177.69 399.704 1175.87 410.36 1175.87 424.568V439.544C1175.87 462.392 1180.28 476.408 1189.12 481.592C1193.15 484.088 1198.43 485.336 1204.96 485.336C1211.48 485.336 1216.76 484.76 1220.8 483.608C1225.02 482.264 1228 480.056 1229.72 476.984C1231.64 473.912 1232.89 470.936 1233.47 468.056C1234.04 464.984 1234.43 460.568 1234.62 454.808ZM1388.86 440.696V425.72C1388.86 411.512 1386.75 400.664 1382.52 393.176C1378.49 385.688 1369.95 381.944 1356.89 381.944C1335.77 381.944 1325.21 396.152 1325.21 424.568V439.544C1325.21 470.072 1335.77 485.336 1356.89 485.336C1370.52 485.336 1379.45 480.248 1383.68 470.072C1387.13 462.008 1388.86 452.216 1388.86 440.696ZM1426.3 432.056C1426.3 467.576 1419.58 491.384 1406.14 503.48C1394.81 513.848 1378.4 519.032 1356.89 519.032C1329.44 519.032 1310.91 510.968 1301.31 494.84C1292.28 480.056 1287.77 459.128 1287.77 432.056C1287.77 406.712 1292.28 386.84 1301.31 372.44C1311.29 356.312 1329.44 348.248 1355.74 348.248C1382.24 348.248 1400.57 355.352 1410.75 369.56C1421.12 383.576 1426.3 404.408 1426.3 432.056ZM1543.51 351.128L1533.14 387.992C1530.26 386.84 1526.99 386.264 1523.35 386.264C1513.75 386.264 1501.94 390.392 1487.92 398.648V515H1450.48V350.552H1478.42L1487.06 364.952L1526.8 348.536C1528.72 348.344 1531.31 348.248 1534.58 348.248C1537.84 348.248 1540.82 349.208 1543.51 351.128ZM1696.05 515H1658.61V409.88C1658.61 400.472 1656.69 394.04 1652.85 390.584C1649.01 387.128 1643.63 385.4 1636.72 385.4L1603.02 399.512V515H1565.58V350.552H1593.52L1602.16 370.136L1648.24 348.824C1661.1 348.824 1672.24 353.624 1681.65 363.224C1691.25 372.632 1696.05 386.456 1696.05 404.696V515Z" fill="#5F8DDC"/>
<path d="M865.352 190.312C865.352 233.128 854.312 260.488 832.232 272.392C823.208 277.192 812.168 279.592 799.112 279.592L771.464 261.736V325.96H734.024V113.704H807.752C830.024 113.704 845.192 120.04 853.256 132.712C861.32 145.192 865.352 164.392 865.352 190.312ZM827.912 196.072C827.912 163.624 817.544 147.4 796.808 147.4H771.464V223.72L796.808 240.136C807.944 240.136 815.912 236.68 820.712 229.768C825.512 222.664 827.912 211.432 827.912 196.072ZM982.444 113.128L972.076 149.992C969.196 148.84 965.932 148.264 962.284 148.264C952.684 148.264 940.876 152.392 926.86 160.648V277H889.42V112.552H917.356L925.996 126.952L965.74 110.536C967.66 110.344 970.252 110.248 973.516 110.248C976.78 110.248 979.756 111.208 982.444 113.128ZM1096.39 202.696V187.72C1096.39 173.512 1094.28 162.664 1090.06 155.176C1086.02 147.688 1077.48 143.944 1064.42 143.944C1043.3 143.944 1032.74 158.152 1032.74 186.568V201.544C1032.74 232.072 1043.3 247.336 1064.42 247.336C1078.06 247.336 1086.98 242.248 1091.21 232.072C1094.66 224.008 1096.39 214.216 1096.39 202.696ZM1133.83 194.056C1133.83 229.576 1127.11 253.384 1113.67 265.48C1102.34 275.848 1085.93 281.032 1064.42 281.032C1036.97 281.032 1018.44 272.968 1008.84 256.84C999.815 242.056 995.303 221.128 995.303 194.056C995.303 168.712 999.815 148.84 1008.84 134.44C1018.82 118.312 1036.97 110.248 1063.27 110.248C1089.77 110.248 1108.1 117.352 1118.28 131.56C1128.65 145.576 1133.83 166.408 1133.83 194.056ZM1201.21 118.6V283.048C1201.21 294.76 1197.47 304.84 1189.98 313.288C1182.69 321.736 1171.84 325.96 1157.44 325.96H1136.13V294.28H1150.53C1159.36 294.28 1163.77 289.768 1163.77 280.744V118.6H1201.21ZM1182.78 49.768C1191.81 49.768 1197.66 51.208 1200.35 54.088C1203.04 56.776 1204.38 62.632 1204.38 71.656C1204.38 80.488 1202.94 86.344 1200.06 89.224C1197.37 91.912 1191.52 93.256 1182.49 93.256C1173.66 93.256 1167.81 91.816 1164.93 88.936C1162.24 86.056 1160.89 80.2 1160.89 71.368C1160.89 62.536 1162.24 56.776 1164.93 54.088C1167.81 51.208 1173.76 49.768 1182.78 49.768ZM1366.35 203.56H1270.45C1270.45 218.536 1272.75 229.48 1277.36 236.392C1282.16 243.304 1291.66 246.76 1305.87 246.76C1315.09 246.76 1321.9 243.88 1326.32 238.12C1330.73 232.168 1332.94 226.504 1332.94 221.128H1366.64C1366.64 241.672 1361.07 256.744 1349.93 266.344C1338.99 275.944 1324.4 280.744 1306.16 280.744C1288.11 280.744 1274.09 278.152 1264.11 272.968C1243.57 262.408 1233.29 234.376 1233.29 188.872C1233.29 161.8 1239.15 142.024 1250.86 129.544C1262.57 116.872 1280.43 110.536 1304.43 110.536C1346.09 110.536 1366.93 133.672 1366.93 179.944C1366.93 184.936 1366.73 192.808 1366.35 203.56ZM1271.31 177.928H1332.94C1332.94 165.256 1330.54 156.04 1325.74 150.28C1320.94 144.52 1313.55 141.64 1303.57 141.64C1293.77 141.64 1285.9 144.616 1279.95 150.568C1274.19 156.328 1271.31 165.448 1271.31 177.928ZM1484.96 216.808L1518.95 216.52C1518.76 218.056 1518.56 220.84 1518.37 224.872C1518.18 228.904 1517.99 231.688 1517.8 233.224C1517.8 234.568 1517.6 236.776 1517.22 239.848C1516.84 242.92 1516.36 245.224 1515.78 246.76C1515.4 248.104 1514.82 249.928 1514.05 252.232C1510.6 262.216 1501.19 270.088 1485.83 275.848C1476.04 279.304 1465.76 281.032 1455.01 281.032C1444.45 281.032 1434.85 279.304 1426.21 275.848C1417.57 272.392 1410.76 267.976 1405.76 262.6C1394.44 250.696 1388.77 228.424 1388.77 195.784C1388.77 162.952 1394.44 140.584 1405.76 128.68C1410.76 123.304 1417.57 118.888 1426.21 115.432C1434.85 111.976 1444.45 110.248 1455.01 110.248C1475.75 110.248 1491.49 115.432 1502.24 125.8C1513 136.168 1518.37 150.568 1518.37 169H1484.39C1484.39 160.552 1482.28 154.312 1478.05 150.28C1473.83 146.056 1465.96 143.944 1454.44 143.944C1443.11 143.944 1435.52 147.496 1431.68 154.6C1428.04 161.704 1426.21 172.36 1426.21 186.568V201.544C1426.21 224.392 1430.63 238.408 1439.46 243.592C1443.49 246.088 1448.77 247.336 1455.3 247.336C1461.83 247.336 1467.11 246.76 1471.14 245.608C1475.36 244.264 1478.34 242.056 1480.07 238.984C1481.99 235.912 1483.24 232.936 1483.81 230.056C1484.39 226.984 1484.77 222.568 1484.96 216.808ZM1620.48 277H1597.16C1582.95 277 1572.1 272.776 1564.61 264.328C1557.32 255.88 1553.67 245.8 1553.67 234.088V147.688H1537.83V119.176H1553.67V86.92H1591.11V119.176H1617.6V147.688H1591.11V231.784C1591.11 240.808 1595.43 245.32 1604.07 245.32H1620.48V277Z" fill="#5F8DDC"/>
<path fill-rule="evenodd" clip-rule="evenodd" d="M571.758 90.2279L543.726 118.812L521.185 96.28L498.644 73.7482V149.628V225.508L560.628 225.32L622.612 225.134L622.806 211.603L623 198.073L590.443 165.53C572.537 147.632 557.886 132.686 557.886 132.318C557.886 131.662 560.766 126.848 573.235 106.651C594.643 71.98 600.465 62.3186 600.148 62.0023C599.953 61.8048 587.177 74.507 571.758 90.2279ZM470.636 74.0809L456.892 74.4704L386.711 144.651L316.532 214.832V231.868C316.532 241.237 316.779 248.903 317.082 248.903C318.117 248.903 492.122 74.4082 491.605 73.8908C491.32 73.6055 489.579 73.4446 487.734 73.5324C485.891 73.6183 478.197 73.8652 470.636 74.0809ZM406.844 163.31C358.178 211.971 318.273 252.205 318.165 252.721C318.057 253.237 357.758 293.44 406.389 342.064L494.808 430.469L495.258 374.61C496.16 262.847 496.606 74.8361 495.971 74.8361C495.616 74.8361 455.51 114.65 406.844 163.31ZM213.042 258.109C210.227 259.548 201.999 263.783 194.758 267.52C187.518 271.26 175.669 277.365 168.429 281.089C161.188 284.814 151.314 289.915 146.487 292.424C141.66 294.934 130.799 300.535 122.352 304.868C113.905 309.201 102.715 314.956 97.4853 317.656C92.256 320.355 81.0659 326.118 72.6185 330.461C64.1712 334.805 54.5006 339.788 51.1289 341.536L45 344.713H50.0611C52.844 344.713 66.7931 344.203 81.0568 343.58C95.3222 342.956 113.053 342.194 120.458 341.885L133.922 341.325L168.648 306.269C215.524 258.947 218.923 255.486 218.515 255.489C218.321 255.491 215.858 256.67 213.042 258.109ZM228.401 256.021L222.55 256.265L179.216 299.573L135.882 342.879V386.46C135.882 410.429 136.058 430.215 136.27 430.429C136.729 430.888 310.681 257.031 310.681 256.113C310.681 255.539 241.946 255.462 228.401 256.021ZM225.657 344.532C177.086 393.105 137.345 433.093 137.345 433.394C137.345 433.694 177.169 433.941 225.842 433.941H314.338V345.079C314.338 296.205 314.256 256.217 314.153 256.217C314.053 256.217 274.229 295.958 225.657 344.532ZM316.532 345.445V433.941H405.028C453.701 433.941 493.525 433.694 493.525 433.391C493.525 432.674 317.797 256.948 317.079 256.948C316.779 256.948 316.532 296.772 316.532 345.445ZM129.271 344.962C129.086 345.132 119.061 345.639 106.993 346.087C44.201 348.414 44.8428 348.352 45.543 352.027C45.735 353.033 46.4225 368.501 47.0698 386.402C47.7189 404.302 48.4978 419.211 48.8032 419.531C49.1085 419.853 60.0224 410.627 73.0555 399.029C140.002 339.462 133.798 345.251 131.099 344.865C130.276 344.748 129.454 344.792 129.271 344.962ZM181.67 480.824L226.359 525.513L270.64 481.19C294.995 456.813 315.201 436.867 315.541 436.867C315.883 436.867 336.091 456.793 360.449 481.15L404.736 525.432L447.119 483.046C470.43 459.733 490.469 439.642 491.651 438.397L493.799 436.135H315.389H136.981L181.67 480.824Z" fill="#5F8DDC"/>
</svg>
