<svg width="1689" height="460" viewBox="0 0 1689 460" fill="none" xmlns="http://www.w3.org/2000/svg">
<g clip-path="url(#clip0)">
<path fill-rule="evenodd" clip-rule="evenodd" d="M392.538 92.6806L373.139 112.462L357.54 96.8689L341.941 81.276V133.788V186.3L384.836 186.17L427.732 186.041L427.866 176.677L428 167.314L405.469 144.793C393.077 132.406 382.938 122.063 382.938 121.809C382.938 121.355 384.931 118.023 393.561 104.046C408.376 80.0524 412.405 73.3662 412.186 73.1473C412.05 73.0107 403.209 81.8011 392.538 92.6806ZM322.558 81.5063L313.046 81.7758L264.478 130.344L215.911 178.912V190.701C215.911 197.185 216.082 202.491 216.292 202.491C217.009 202.491 337.427 81.7328 337.069 81.3747C336.872 81.1773 335.667 81.0659 334.39 81.1266C333.115 81.1861 327.79 81.3569 322.558 81.5063ZM278.411 143.257C244.732 176.932 217.116 204.776 217.041 205.133C216.967 205.489 244.441 233.312 278.096 266.962L339.286 328.141L339.597 289.485C340.221 212.14 340.53 82.0289 340.091 82.0289C339.845 82.0289 312.09 109.582 278.411 143.257ZM144.292 208.862C142.344 209.857 136.65 212.788 131.639 215.374C126.628 217.962 118.429 222.187 113.418 224.765C108.407 227.342 101.574 230.872 98.2335 232.609C94.893 234.346 87.3767 238.222 81.5308 241.221C75.6849 244.219 67.9409 248.201 64.322 250.07C60.7031 251.938 52.9591 255.926 47.1132 258.932C41.2672 261.938 34.5748 265.386 32.2415 266.596L28 268.795H31.5025C33.4284 268.795 43.0818 268.442 52.9528 268.011C62.8251 267.579 75.0952 267.051 80.2199 266.838L89.538 266.45L113.57 242.19C146.009 209.441 148.362 207.046 148.08 207.048C147.945 207.05 146.241 207.866 144.292 208.862ZM154.921 207.417L150.872 207.585L120.883 237.556L90.8944 267.526V297.686C90.8944 314.273 91.0159 327.966 91.1627 328.114C91.4803 328.431 211.862 208.115 211.862 207.48C211.862 207.083 164.295 207.029 154.921 207.417ZM153.022 268.67C119.409 302.284 91.9067 329.957 91.9067 330.166C91.9067 330.374 119.466 330.544 153.15 330.544H214.393V269.048C214.393 235.225 214.336 207.552 214.265 207.552C214.196 207.552 186.636 235.054 153.022 268.67ZM215.911 269.301V330.544H277.155C310.838 330.544 338.398 330.374 338.398 330.164C338.398 329.667 216.787 208.058 216.29 208.058C216.082 208.058 215.911 235.618 215.911 269.301ZM86.3189 268.967C86.1911 269.085 79.2532 269.435 70.9018 269.745C27.447 271.356 27.8912 271.313 28.3758 273.857C28.5087 274.552 28.9844 285.257 29.4324 297.645C29.8816 310.033 30.4206 320.351 30.6319 320.572C30.8433 320.795 38.3962 314.41 47.4156 306.384C93.7453 265.161 89.4519 269.167 87.5843 268.9C87.0149 268.819 86.4455 268.85 86.3189 268.967ZM122.581 362.989L153.508 393.916L184.152 363.242C201.007 346.373 214.99 332.569 215.226 332.569C215.462 332.569 229.447 346.359 246.304 363.215L276.952 393.86L306.283 364.527C322.415 348.393 336.283 334.49 337.101 333.628L338.588 332.063H215.121H91.6549L122.581 362.989Z" fill="white"/>
</g>
<path d="M716.776 213.88C705.832 213.88 696.328 211.768 688.264 207.544C680.2 203.128 673.96 196.792 669.544 188.536V272.344H614.824V59.512H662.344V82.264C667.72 74.008 674.344 67.672 682.216 63.256C690.088 58.84 699.784 56.632 711.304 56.632C721.288 56.632 730.6 58.648 739.24 62.68C747.88 66.52 755.272 71.896 761.416 78.808C767.56 85.72 772.36 93.976 775.816 103.576C779.464 113.176 781.288 123.544 781.288 134.68C781.288 146.008 779.656 156.568 776.392 166.36C773.128 175.96 768.616 184.312 762.856 191.416C757.096 198.52 750.28 204.088 742.408 208.12C734.536 211.96 725.992 213.88 716.776 213.88ZM697.768 167.8C701.8 167.8 705.448 166.936 708.712 165.208C712.168 163.48 715.048 161.08 717.352 158.008C719.848 154.936 721.768 151.384 723.112 147.352C724.648 143.32 725.416 139 725.416 134.392C725.416 124.792 722.632 117.112 717.064 111.352C711.688 105.592 704.488 102.712 695.464 102.712C685.288 102.712 676.648 107.896 669.544 118.264V144.472C672.232 151.192 676.168 156.76 681.352 161.176C686.536 165.592 692.008 167.8 697.768 167.8ZM904.109 106.168C893.549 106.168 883.949 107.32 875.309 109.624C866.669 111.928 860.237 115.768 856.013 121.144V211H801.293V59.512H851.405V88.312C856.781 78.136 863.405 70.36 871.277 64.984C879.341 59.416 887.981 56.632 897.197 56.632C900.845 56.632 903.149 56.728 904.109 56.92V106.168ZM995.697 213.88C982.065 213.88 970.065 211.768 959.697 207.544C949.521 203.128 940.881 197.368 933.777 190.264C926.865 182.968 921.585 174.616 917.937 165.208C914.481 155.608 912.753 145.624 912.753 135.256C912.753 124.888 914.481 115 917.937 105.592C921.585 95.992 926.865 87.64 933.777 80.536C940.881 73.24 949.521 67.48 959.697 63.256C970.065 58.84 982.065 56.632 995.697 56.632C1009.14 56.632 1021.04 58.84 1031.41 63.256C1041.78 67.48 1050.42 73.24 1057.33 80.536C1064.43 87.64 1069.71 95.992 1073.17 105.592C1076.82 115 1078.64 124.888 1078.64 135.256C1078.64 145.624 1076.82 155.608 1073.17 165.208C1069.71 174.616 1064.43 182.968 1057.33 190.264C1050.42 197.368 1041.78 203.128 1031.41 207.544C1021.04 211.768 1009.14 213.88 995.697 213.88ZM968.913 135.256C968.913 145.432 971.409 153.4 976.401 159.16C981.393 164.92 987.825 167.8 995.697 167.8C1003.57 167.8 1010 164.92 1014.99 159.16C1019.99 153.4 1022.48 145.432 1022.48 135.256C1022.48 125.08 1019.99 117.112 1014.99 111.352C1010 105.592 1003.57 102.712 995.697 102.712C987.825 102.712 981.393 105.592 976.401 111.352C971.409 117.112 968.913 125.08 968.913 135.256ZM1094.56 271.192C1086.49 271.192 1078.81 269.848 1071.52 267.16C1064.22 264.472 1057.6 260.632 1051.64 255.64L1074.11 218.488C1077.56 222.328 1082.08 224.248 1087.64 224.248C1095.32 224.248 1099.16 220.12 1099.16 211.864V59.512H1153.88V207.544C1153.88 216.952 1152.44 225.496 1149.56 233.176C1146.68 241.048 1142.56 247.768 1137.18 253.336C1132 259.096 1125.76 263.512 1118.46 266.584C1111.16 269.656 1103.2 271.192 1094.56 271.192ZM1099.16 46.84V0.759995H1153.88V46.84H1099.16ZM1256.13 213.88C1242.89 213.88 1231.08 211.864 1220.71 207.832C1210.34 203.608 1201.61 197.944 1194.5 190.84C1187.59 183.736 1182.31 175.576 1178.66 166.36C1175.01 157.144 1173.19 147.448 1173.19 137.272C1173.19 126.328 1174.92 115.96 1178.37 106.168C1182.02 96.376 1187.3 87.832 1194.21 80.536C1201.32 73.24 1209.96 67.48 1220.13 63.256C1230.5 58.84 1242.5 56.632 1256.13 56.632C1269.57 56.632 1281.48 58.84 1291.85 63.256C1302.21 67.48 1310.85 73.24 1317.77 80.536C1324.87 87.64 1330.15 95.992 1333.61 105.592C1337.25 115 1339.08 124.888 1339.08 135.256C1339.08 138.136 1338.89 141.112 1338.5 144.184C1338.31 147.064 1338.02 149.656 1337.64 151.96H1231.37C1231.94 160.024 1234.92 165.88 1240.29 169.528C1245.67 172.984 1251.53 174.712 1257.86 174.712C1263.81 174.712 1269.38 173.368 1274.57 170.68C1279.94 167.992 1283.49 164.248 1285.22 159.448L1331.59 172.696C1325.45 184.792 1315.94 194.68 1303.08 202.36C1290.41 210.04 1274.76 213.88 1256.13 213.88ZM1280.33 119.128C1279.37 111.832 1276.68 106.072 1272.26 101.848C1267.85 97.624 1262.18 95.512 1255.27 95.512C1248.36 95.512 1242.69 97.624 1238.28 101.848C1233.86 106.072 1231.17 111.832 1230.21 119.128H1280.33ZM1348.69 135.256C1348.69 124.888 1350.51 115 1354.16 105.592C1357.81 95.992 1363.09 87.64 1370 80.536C1377.11 73.24 1385.84 67.48 1396.21 63.256C1406.58 58.84 1418.48 56.632 1431.92 56.632C1450.35 56.632 1465.71 60.472 1478 68.152C1490.48 75.832 1499.79 85.72 1505.94 97.816L1452.66 113.944C1447.47 106.456 1440.47 102.712 1431.63 102.712C1424.15 102.712 1417.81 105.592 1412.63 111.352C1407.44 116.92 1404.85 124.888 1404.85 135.256C1404.85 145.624 1407.44 153.688 1412.63 159.448C1417.81 165.016 1424.15 167.8 1431.63 167.8C1440.47 167.8 1447.47 164.056 1452.66 156.568L1505.94 172.696C1499.79 184.792 1490.48 194.68 1478 202.36C1465.71 210.04 1450.35 213.88 1431.92 213.88C1418.48 213.88 1406.58 211.768 1396.21 207.544C1385.84 203.128 1377.11 197.368 1370 190.264C1363.09 182.968 1357.81 174.616 1354.16 165.208C1350.51 155.608 1348.69 145.624 1348.69 135.256ZM1629.53 202.648C1621.85 205.912 1613.6 208.696 1604.77 211C1596.13 213.112 1587.58 214.168 1579.13 214.168C1572.99 214.168 1567.13 213.4 1561.57 211.864C1556 210.328 1551.1 207.832 1546.88 204.376C1542.85 200.92 1539.58 196.408 1537.09 190.84C1534.78 185.272 1533.63 178.36 1533.63 170.104V100.696H1514.91V59.512H1533.63V11.992H1588.35V59.512H1618.01V100.696H1588.35V150.808C1588.35 155.8 1589.41 159.352 1591.52 161.464C1593.63 163.384 1596.51 164.344 1600.16 164.344C1602.85 164.344 1605.92 163.96 1609.37 163.192C1612.83 162.232 1616.29 160.984 1619.74 159.448L1629.53 202.648ZM660.616 441.88C645.256 441.88 633.544 437.272 625.48 428.056C617.416 418.648 613.384 405.016 613.384 387.16V287.512H668.104V374.776C668.104 381.496 669.544 386.68 672.424 390.328C675.496 393.976 679.624 395.8 684.808 395.8C689.032 395.8 693.352 394.84 697.768 392.92C702.184 391 706.6 386.776 711.016 380.248V287.512H765.736V378.52C765.736 383.704 766.504 387.352 768.04 389.464C769.576 391.384 772.264 392.536 776.104 392.92V439C766.696 440.92 759.016 441.88 753.064 441.88C734.44 441.88 723.688 434.872 720.808 420.856L719.656 415.384C712.552 424.792 704.104 431.608 694.312 435.832C684.52 439.864 673.288 441.88 660.616 441.88ZM950.832 439H896.112V353.752C896.112 346.264 894.384 340.888 890.928 337.624C887.664 334.168 883.824 332.44 879.408 332.44C874.8 332.44 869.904 334.456 864.72 338.488C859.536 342.52 855.696 347.704 853.2 354.04V439H798.48V287.512H847.728V309.976C853.104 301.72 860.592 295.48 870.192 291.256C879.984 286.84 891.504 284.632 904.752 284.632C915.12 284.632 923.28 286.552 929.232 290.392C935.376 294.04 939.984 298.648 943.056 304.216C946.32 309.784 948.432 315.736 949.392 322.072C950.352 328.408 950.832 334.168 950.832 339.352V439ZM977.355 439V287.512H1032.08V439H977.355ZM977.355 274.84V228.76H1032.08V274.84H977.355ZM1051.41 363.256C1051.41 352.888 1053.23 343 1056.88 333.592C1060.53 323.992 1065.81 315.64 1072.72 308.536C1079.83 301.24 1088.56 295.48 1098.93 291.256C1109.3 286.84 1121.2 284.632 1134.64 284.632C1153.07 284.632 1168.43 288.472 1180.72 296.152C1193.2 303.832 1202.51 313.72 1208.66 325.816L1155.38 341.944C1150.19 334.456 1143.19 330.712 1134.35 330.712C1126.87 330.712 1120.53 333.592 1115.35 339.352C1110.16 344.92 1107.57 352.888 1107.57 363.256C1107.57 373.624 1110.16 381.688 1115.35 387.448C1120.53 393.016 1126.87 395.8 1134.35 395.8C1143.19 395.8 1150.19 392.056 1155.38 384.568L1208.66 400.696C1202.51 412.792 1193.2 422.68 1180.72 430.36C1168.43 438.04 1153.07 441.88 1134.64 441.88C1121.2 441.88 1109.3 439.768 1098.93 435.544C1088.56 431.128 1079.83 425.368 1072.72 418.264C1065.81 410.968 1060.53 402.616 1056.88 393.208C1053.23 383.608 1051.41 373.624 1051.41 363.256ZM1299.17 441.88C1285.53 441.88 1273.53 439.768 1263.17 435.544C1252.99 431.128 1244.35 425.368 1237.25 418.264C1230.33 410.968 1225.05 402.616 1221.41 393.208C1217.95 383.608 1216.22 373.624 1216.22 363.256C1216.22 352.888 1217.95 343 1221.41 333.592C1225.05 323.992 1230.33 315.64 1237.25 308.536C1244.35 301.24 1252.99 295.48 1263.17 291.256C1273.53 286.84 1285.53 284.632 1299.17 284.632C1312.61 284.632 1324.51 286.84 1334.88 291.256C1345.25 295.48 1353.89 301.24 1360.8 308.536C1367.9 315.64 1373.18 323.992 1376.64 333.592C1380.29 343 1382.11 352.888 1382.11 363.256C1382.11 373.624 1380.29 383.608 1376.64 393.208C1373.18 402.616 1367.9 410.968 1360.8 418.264C1353.89 425.368 1345.25 431.128 1334.88 435.544C1324.51 439.768 1312.61 441.88 1299.17 441.88ZM1272.38 363.256C1272.38 373.432 1274.88 381.4 1279.87 387.16C1284.86 392.92 1291.29 395.8 1299.17 395.8C1307.04 395.8 1313.47 392.92 1318.46 387.16C1323.45 381.4 1325.95 373.432 1325.95 363.256C1325.95 353.08 1323.45 345.112 1318.46 339.352C1313.47 333.592 1307.04 330.712 1299.17 330.712C1291.29 330.712 1284.86 333.592 1279.87 339.352C1274.88 345.112 1272.38 353.08 1272.38 363.256ZM1504.3 334.168C1493.74 334.168 1484.14 335.32 1475.5 337.624C1466.86 339.928 1460.42 343.768 1456.2 349.144V439H1401.48V287.512H1451.59V316.312C1456.97 306.136 1463.59 298.36 1471.46 292.984C1479.53 287.416 1488.17 284.632 1497.38 284.632C1501.03 284.632 1503.34 284.728 1504.3 284.92V334.168ZM1673.64 439H1618.92V353.752C1618.92 346.264 1617.2 340.888 1613.74 337.624C1610.48 334.168 1606.64 332.44 1602.22 332.44C1597.61 332.44 1592.72 334.456 1587.53 338.488C1582.35 342.52 1578.51 347.704 1576.01 354.04V439H1521.29V287.512H1570.54V309.976C1575.92 301.72 1583.4 295.48 1593 291.256C1602.8 286.84 1614.32 284.632 1627.56 284.632C1637.93 284.632 1646.09 286.552 1652.04 290.392C1658.19 294.04 1662.8 298.648 1665.87 304.216C1669.13 309.784 1671.24 315.736 1672.2 322.072C1673.16 328.408 1673.64 334.168 1673.64 339.352V439Z" fill="white"/>
<defs>
<clipPath id="clip0">
<rect width="400" height="400" fill="white" transform="translate(28 43)"/>
</clipPath>
</defs>
</svg>
